<svg fill="none" height="180" viewBox="0 0 180 180" width="180" xmlns="http://www.w3.org/2000/svg"><ellipse cx="90" cy="90.1088" fill="#fff" fill-opacity=".25" rx="90" ry="89.891"/><path d="m131.017 104.324c-3.858 3.991-14.009 12.983-18.235 16.195-5.834 4.404-15.5715 10.781-24.2528 15.827l-7.7626 4.542 12.6315 12.525c14.2849 14.13 14.8819 14.543 20.5319 14.543 5.512 0 9.968-2.845 12.172-7.845.689-1.514 1.746-8.855 4.318-30.05 1.883-15.369 3.353-28.031 3.261-28.123-.092-.091-1.286 1.01-2.664 2.386z" fill="#e1e8ec"/><path d="m77.3226 133.732c-2.0211 7.34-7.3952 16.275-10.932 16.275-2.2048 0-3.8125-1.33-13.3206-10.873l-8.1301-8.212 5.2823-8.854c45.7032-26.8729 17.2708-21.127 27.1004 11.664z" fill="#e1e8ec"/><path d="m172.22 23.4623c-3.078 7.9367-8.268 17.6627-13.964 26.2417-20.716 31.013-51.72 53.493-87.364 63.356-7.3493 2.019-8.9569 3.212-8.9569 6.744 0 2.202 1.332 3.808 10.886 13.305l8.222 8.12 8.865-5.276c18.5109-11.102 28.2489-18.397 40.1909-30.325 15.25-15.2768 27.698-33.9947 36.058-54.2265 1.791-4.3584 3.628-9.359 3.95-10.6435.046-.1377.321-.7799.597-1.4222.413-1.0093 1.286-3.8996 1.699-5.6888.046-.2753.23-.7799.368-1.1469 1.056-2.7527 1.654-10.1389.873-11.3317-.23-.3211-.781.5505-1.424 2.2939z" fill="#f0f4f6"/><path d="m42.4134 128.139c6.2928 6.331 11.5291 11.561 11.575 11.561 0 0-.1837-.642-.4593-1.376-.3215-.78-.5971-1.193-.7349-.872-.0919.275-5.0526-4.312-11.0239-10.185l-10.8401-10.735z" fill="#c1ecec"/><g fill="#fff"><path d="m144.981.278199c-3.077.458772-9.14 2.293861-15.755 4.771221-20.164 7.52388-36.3325 16.79108-51.4444 29.59078-3.0315 2.5691-5.9253 4.863-6.4306 5.0924-.5052.2294-12.9989 1.8351-27.7893 3.6243s-27.9731 3.5325-29.3511 3.9454c-5.23631 1.514-8.91094 6.7898-8.95687 12.7997-.04593 5.5053.2756 5.8723 17.73007 23.3515l15.5253 15.5983-4.134 4.1752c-2.2507 2.293-4.3177 4.771-4.5932 5.459-.6431 1.743-.5972 4.175.1837 5.918.3674.826 5.6038 6.423 11.7128 12.479l11.0699 11.01v-1.881c0-2.339 1.2401-4.129 6.5224-9.221 3.399-3.303 3.7665-3.808 3.2612-4.542-.8267-1.147-.7349-3.67.1838-5.23.8727-1.514 2.5263-2.294 8.176-3.854 14.6526-4.083 28.5702-10.276 42.0283-18.8092 25.998-16.3781 48.184-42.8952 59.3-70.8344l1.332-3.349-.965-2.7985c-1.424-4.3125-2.48-6.0558-5.512-9.31307-5.925-6.28518-14.009-9.221315-22.094-7.982631zm-17.868 33.719701c5.65 1.6516 11.116 7.111 12.908 12.8915 3.445 11.1023-2.894 22.7092-14.01 25.5536-9.508 2.4774-19.062-2.0645-23.334-11.1023-1.378-2.8902-1.47-3.349-1.47-8.3496s.092-5.4594 1.47-8.3955c2.71-5.6888 8.636-10.2765 14.699-11.3317 2.664-.5047 6.706-.1835 9.737.734z"/><path d="m23.9481 133.001c-3.8125 1.193-7.3952 4.267-9.2785 7.937-.8727 1.789-9.87552 30.875-9.59993 31.151.36747.367 29.81043-8.946 32.01513-10.139 2.8019-1.514 5.0986-4.083 6.5684-7.387.7809-1.743 1.0106-3.119 1.0565-6.147 0-3.349-.1837-4.313-1.3321-6.79-1.6995-3.624-5.2363-6.973-8.7731-8.304-2.9397-1.101-7.6708-1.238-10.6564-.321z"/></g></svg>