<svg fill="none" height="180" viewBox="0 0 180 180" width="180" xmlns="http://www.w3.org/2000/svg"><g fill="#fff"><circle cx="90" cy="90" fill-opacity=".25" r="90"/><path d="m9 73.8c0-22.6821 0-34.0232 4.4142-42.6866 3.8829-7.6206 10.0786-13.8163 17.6992-17.6992 8.6634-4.4142 20.0045-4.4142 42.6866-4.4142h9.72v46.4228c-1.392-2.3473-2.9904-4.5358-4.8532-6.3974-4.79-4.7867-11.5583-9.0705-18.9661-10.6379-7.666-1.622-16.2628-.3142-23.1688 6.5909-3.5499 3.5494-5.5389 7.7744-5.9729 12.3143-.422 4.4152.6668 8.6478 2.4183 12.366 2.4347 5.1684 6.4138 9.9256 10.9207 13.8613h-34.898z"/><path d="m9 96.48v9.72c0 22.682 0 34.023 4.4142 42.687 3.8829 7.62 10.0786 13.816 17.6992 17.699 8.6634 4.414 20.0045 4.414 42.6866 4.414h9.72v-57.077c-10.9779 14.298-24.495 24.123-40.7697 27.378-3.7287.746-7.3559-1.672-8.1016-5.401-.7457-3.728 1.6724-7.356 5.401-8.101 14.8724-2.975 27.899-13.516 38.6783-31.2415-.2362-.0249-.4747-.0507-.7154-.0775z"/><path d="m101.988 96.48c-.241.0268-.48.0526-.716.0775 10.779 17.7255 23.806 28.2665 38.678 31.2415 3.729.745 6.147 4.373 5.401 8.101-.745 3.729-4.373 6.147-8.101 5.401-16.275-3.255-29.792-13.08-40.77-27.378v57.077h9.72c22.682 0 34.023 0 42.687-4.414 7.62-3.883 13.816-10.079 17.699-17.699 4.414-8.664 4.414-20.005 4.414-42.687v-9.72z"/><path d="m171 83.52v-9.72c0-22.6821 0-34.0232-4.414-42.6866-3.883-7.6206-10.079-13.8163-17.699-17.6992-8.664-4.4142-20.005-4.4142-42.687-4.4142h-9.72v46.4228c1.392-2.3473 2.9904-4.5358 4.853-6.3974 4.79-4.7867 11.559-9.0705 18.966-10.6379 7.666-1.622 16.263-.3142 23.169 6.5909 3.55 3.5494 5.539 7.7744 5.973 12.3143.422 4.4152-.667 8.6478-2.418 12.366-2.435 5.1684-6.414 9.9256-10.921 13.8613z"/><path d="m123.15 51.8592c-4.292.9081-8.773 3.5985-12.083 6.9063-2.808 2.8061-5.134 7.8726-7.545 14.7465-.554 1.579-1.119 3.2794-1.701 5.032-.464 1.3968-.941 2.8305-1.43 4.2586.767-.0848 1.559-.1805 2.368-.2884 7.453-.9934 15.199-2.8755 19.872-5.9908 5.393-3.5954 9.871-8.3517 11.935-12.733 1.005-2.1331 1.294-3.8642 1.167-5.1874-.114-1.1985-.6-2.4866-2.001-3.8871-2.995-2.9948-6.549-3.7101-10.582-2.8567z"/><path d="m68.9332 58.7655c-3.31-3.3078-7.7911-5.9982-12.083-6.9063-4.0337-.8534-7.5869-.1381-10.5821 2.8567-1.4007 1.4005-1.887 2.6886-2.0016 3.8871-.1264 1.3232.1629 3.0543 1.1678 5.1874 2.0639 4.3813 6.5418 9.1376 11.9348 12.733 4.673 3.1153 12.4184 4.9974 19.8718 5.9908.8091.1079 1.6006.2036 2.3681.2884-.4894-1.4281-.9644-2.858-1.4285-4.2548-.5822-1.7526-1.1484-3.4568-1.7023-5.0358-2.4116-6.8739-4.7371-11.9404-7.545-14.7465z"/></g></svg>