<svg fill="none" height="88" viewBox="0 0 549 88" width="549" xmlns="http://www.w3.org/2000/svg"><g fill="#fff"><path clip-rule="evenodd" d="m116.909 46.2549c.05 19.8822-16.027 36.0409-35.9088 36.0914-19.8822.0505-36.0408-16.0262-36.0913-35.9084-.0506-19.8822 16.0261-36.0409 35.9084-36.0914 19.8817-.0505 36.0407 16.0262 36.0917 35.9084zm-48.334-15.7845 24.585-.0625h.0031c4.5172-.0115 7.3949 4.8636 5.1336 8.8049l-15.1092 26.3376c-.9858 1.7197-3.4671 1.726-4.4616.0113l-15.2397-26.2604c-2.2842-3.9361.5685-8.8194 5.0888-8.8309zm10.1155 27.1987-.0578-22.7318-10.0494.0255c-1.1014.0028-1.7481 1.1741-1.2198 2.0855l8.0094 14.2399zm7.7744-6.406 7.9338-14.2866c.5237-.9141-.1289-2.082-1.2304-2.0792l-10.0494.0255.0578 22.7409z" fill-rule="evenodd"/><path clip-rule="evenodd" d="m40.2196 5.41563c.5901-1.95045 1.0162-2.5569 2.1308-3.08139 1.6882-.78673 3.8189.18029 4.3598 1.96685.2623.86868.0328 2.91748-.5737 5.2613-2.016 7.67071-6.5561 13.48921-13.0467 16.73451-1.0326.5081-2.1963 1.0326-2.5733 1.1474l-.7047.1966v11.1619c0 10.8504.0163 11.5716.7375 26.4868.4098 8.4246.754 15.9969.754 16.8165.0164 1.6226-.1475 2.1143-.9507 2.8847-1.6062 1.5407-4.1139 1.1145-5.1301-.8523-.2295-.459-.7048-3.9829-2.0816-15.62l-1.7702-15.0464-.5736.0492-.5737.0492-1.7538 14.9152c-1.2129 10.244-1.8521 15.0955-2.0324 15.5216-.5081 1.1474-1.721 1.9341-2.9666 1.9341-1.1965-.0164-2.5897-.9506-2.9831-2.016-.2622-.7048-.2294-2.0488.4753-16.7509.3606-7.4904.6557-13.6532.6557-13.7352 0-.0655-.3115-.1147-.6884-.1147-1.11457 0-1.96687-.5409-3.42561-2.1799-3.90091-4.3926-6.35946-8.4082-7.195368-11.7191-1.196496-4.7532 1.163718-10.6701 5.638278-14.1285 1.14733-.8851 3.44198-2.0979 5.1957-2.7536 2.8192-1.0489 4.9008-1.3931 10.2276-1.6554 1.6227-.0983 3.5403-.2786 4.2615-.4261 5.3433-1.1146 9.2933-4.0812 12.1944-9.1786.9671-1.68823 1.6391-3.34366 2.393-5.86777zm-28.5028 40.20557c.0328 0 .0656-3.2781.0656-7.2938 0-4.0156-.0492-7.2937-.1148-7.2937-.0819 0-.4589.2459-.8687.5573-1.70455 1.2457-2.99939 3.2945-3.21246 5.0482-.13113 1.1146.27863 2.5078 1.32762 4.5074.68839 1.2948 2.67164 4.4746 2.80274 4.4746zm2.606-30.3223c-2.1635-4.2615.377-9.55557 5.0319-10.47343 2.393-.47532 4.8351.27863 6.5725 2.01601 2.2127 2.19631 2.77 5.39242 1.4587 8.21152-2.5405 5.4253-10.3587 5.5728-13.0631.2459z" fill-rule="evenodd" opacity=".45"/><path d="m149 42.5c-.828 0-1.5.6716-1.5 1.5s.672 1.5 1.5 1.5zm57.061 2.5607c.585-.5858.585-1.5356 0-2.1214l-9.546-9.5459c-.586-.5858-1.536-.5858-2.122 0-.585.5858-.585 1.5355 0 2.1213l8.486 8.4853-8.486 8.4853c-.585.5858-.585 1.5355 0 2.1213.586.5858 1.536.5858 2.122 0zm-57.061.4393h56v-3h-56z" fill-opacity=".45"/><path clip-rule="evenodd" d="m284.408 10.1024c-3.585-1.19682-7.421-1.84508-11.408-1.84508-19.882 0-36 16.11778-36 35.99998 0 19.8823 16.118 36 36 36s36-16.1177 36-36c0-2.2338-.203-4.4202-.593-6.5415-2.864 1.8197-6.262 2.8736-9.907 2.8736-2.115 0-4.148-.3551-6.041-1.0088-.003 2.2906-.027 2.5868-.142 2.8961-.174.4518-.706.9432-1.149 1.078-.23.0713-2.394.0951-8.228.0951-7.047 0-7.942-.0159-8.101-.1268l-.174-.1189v-4.5894-4.5895l.174-.1268c.167-.111 1.015-.1189 8.228-.103l1.276.0037c-.441-.5236-.853-1.072-1.235-1.6429-3.12.4596-7.34-.2123-8.721-1.587-.412-.4122-.618-.8402-.658-1.4109-.031-.3963 0-.5311.222-.9908.741-1.5054 3.539-3.4024 6.145-4.3814-.063-.6236-.096-1.2564-.096-1.8967 0-4.5729 1.659-8.7582 4.408-11.987zm-3.759 16.8625c-.172.0734-.344.1526-.515.2374-1.276.642-2.695 1.5615-2.695 1.7517 0 .0476.238.1506.539.222 1.204.2862 2.466.3914 3.574.3425-.361-.8217-.663-1.6746-.903-2.5536zm-5.984 19.3955c0-.0951.071-.2457.158-.3329.159-.1585.262-.1585 7.118-.1585 6.571 0 6.968.0079 7.269.1506.412.1902.737.5152.943.9591.166.3561.166.4278.19 7.5705v.0001.0001.0307c.016 4.6608-.008 7.3954-.063 7.6729-.103.5865-.484 1.1097-.991 1.3712l-.388.1982-6.952.0238c-6.555.0158-6.951.0158-7.118-.1189l-.166-.1427v-8.5209zm-17.874-.3409c-.413.1902-.738.5152-.944.9591-.166.3562-.166.4278-.19 7.5707v.0307c-.016 4.6608.008 7.3954.064 7.6729.103.5865.483 1.1097.99 1.3712l.389.1982 6.935.0238c6.143.0158 6.944.0079 7.11-.1031l.191-.1189v-8.7191c0-8.616 0-8.7191-.159-8.8776-.158-.1585-.261-.1585-7.11-.1585-6.579 0-6.975.0079-7.276.1506zm-1.863-11.9686c-.595.1823-1.094.6341-1.276 1.1731-.088.2378-.111 1.0225-.111 3.5907 0 2.9962.015 3.3211.142 3.662.175.4518.706.9432 1.15 1.078.229.0713 2.401.0951 8.275.0951 7.617 0 7.974-.0079 8.093-.1427.119-.1347.134-.5707.134-4.6766v-4.526l-.174-.1665c-.174-.1585-.23-.1585-8.101-.1506-4.367 0-8.021.0317-8.132.0635zm3.487-7.6017c.515-1.8231 1.728-2.8694 3.607-3.0914 2.203-.2695 5.326.864 8.124 2.9407 1.245.9195 2.061 1.942 2.188 2.7426.071.4677-.151 1.1493-.507 1.5457-1.07 1.1889-3.623 1.9023-6.833 1.9023-3.305 0-5.517-.9274-6.381-2.695-.467-.9591-.539-2.1243-.198-3.3449zm9.195 1.7279c-1.047-.6975-2.362-1.3396-3.282-1.6011-.753-.222-1.823-.325-2.251-.214-.38.103-.626.3725-.769.8481-.19.65-.158 1.0859.095 1.3871.603.7055 2.664 1.0859 4.82.8719.872-.0872 2.306-.3487 2.401-.4438.08-.0793-.198-.3092-1.014-.8482z" fill-rule="evenodd"/><path clip-rule="evenodd" d="m298.747 36.8947c8.05 0 14.575-6.5258 14.575-14.5758 0-8.0499-6.525-14.57574-14.575-14.57574s-14.576 6.52584-14.576 14.57574c0 8.05 6.526 14.5758 14.576 14.5758zm2.312-17.76-2.313-5.5616-2.313 5.5616-6.004.4813 4.574 3.9186-1.397 5.8591 5.14-3.1397 5.141 3.1397-1.398-5.8591 4.575-3.9186z" fill-rule="evenodd" opacity=".45"/><path d="m345.322 42.5c-.828 0-1.5.6716-1.5 1.5s.672 1.5 1.5 1.5zm57.061 2.5607c.586-.5858.586-1.5356 0-2.1214l-9.546-9.5459c-.586-.5858-1.536-.5858-2.121 0-.586.5858-.586 1.5355 0 2.1213l8.485 8.4853-8.485 8.4853c-.586.5858-.586 1.5355 0 2.1213.585.5858 1.535.5858 2.121 0zm-57.061.4393h56v-3h-56z" fill-opacity=".45"/><path clip-rule="evenodd" d="m505.414 44.3501c.05 19.8823-16.027 36.0409-35.909 36.0914s-36.041-16.0262-36.091-35.9084c-.051-19.8822 16.026-36.04085 35.908-36.09137s36.041 16.02617 36.092 35.90837zm-48.334-15.7845 24.585-.0625h.003c4.517-.0114 7.395 4.8636 5.134 8.805l-15.11 26.3375c-.985 1.7197-3.467 1.726-4.461.0113l-15.24-26.2604c-2.284-3.9361.569-8.8194 5.089-8.8309zm10.115 27.1987-.057-22.7318-10.05.0255c-1.101.0028-1.748 1.1741-1.22 2.0855l8.01 14.2399zm7.775-6.406 7.934-14.2866c.523-.9141-.129-2.082-1.231-2.0792l-10.049.0255.058 22.7409z" fill-rule="evenodd"/><g opacity=".45"><path d="m506.472 5.73786c-1.419.70946-1.751 1.63024-1.54 4.25674.755 9.2682 5.661 16.9364 12.755 19.9101l1.057.4528.045 9.238c.03 9.1475.03 9.3588-.709 24.831-.498 10.3551-.71 15.7741-.619 16.0911.347 1.1925 1.555 2.1133 2.792 2.1133 1.208 0 2.416-.8755 2.778-1.9926.075-.2717.83-6.3398 1.675-13.4796.831-7.1399 1.555-13.1325 1.585-13.3288.121-.483.936-.483 1.057 0 .03.1963.755 6.1889 1.585 13.3288.845 7.1398 1.6 13.2079 1.675 13.4796.363 1.1171 1.57 1.9926 2.778 1.9926 1.238 0 2.445-.9208 2.792-2.1133.091-.317-.12-5.736-.618-16.0911-.74-15.4722-.74-15.6835-.71-24.831l.045-9.238 1.057-.4528c7.079-2.9737 11.955-10.5513 12.755-19.8497.227-2.61142-.121-3.63787-1.494-4.36242-1.178-.61889-2.672-.33209-3.532.69436-.453.54341-.589.99626-.921 3.03406-.332 2.1133-.906 3.9397-1.827 5.8417-1.026 2.1435-1.69 3.1548-3.004 4.5435-2.973 3.1398-6.445 4.5587-11.109 4.5587-4.634 0-8.152-1.434-11.065-4.5134-1.298-1.3736-2.083-2.551-3.064-4.6039-.906-1.9019-1.449-3.6379-1.796-5.78132-.378-2.27931-.499-2.6265-1.148-3.24538-.981-.93588-2.052-1.10192-3.275-.48304z"/><path d="m525.159 10.0847c-2.204.6189-3.955 2.3397-4.604 4.5133-.317 1.0718-.287 2.7473.06 3.7587.438 1.2528.695 1.6906 1.585 2.6114 2.506 2.551 6.672 2.5812 9.208.0301 1.313-1.3132 1.902-2.7321 1.902-4.6492 0-4.2114-4.121-7.38133-8.151-6.2643z"/></g></g></svg>