<svg fill="none" height="116" viewBox="0 0 116 116" width="116" xmlns="http://www.w3.org/2000/svg"><g fill="#fff"><circle cx="58" cy="58" fill-opacity=".2" r="58"/><path d="m27.1934 54.0316c16.3746-7.0432 27.2935-11.6866 32.7568-13.93 15.5988-6.4055 18.8401-7.5182 20.9528-7.5553.4646-.0077 1.5036.106 2.1765.6451.5683.4552.7246 1.0701.7995 1.5017.0748.4316.1679 1.4148.0939 2.1831-.8453 8.7686-4.503 30.0477-6.3638 39.8687-.7873 4.1556-2.3377 5.549-3.8386 5.6854-3.2619.2963-5.7388-2.1283-8.8981-4.1728-4.9436-3.1994-7.7364-5.191-12.5351-8.313-5.5457-3.608-1.9506-5.591 1.2098-8.8318.8271-.8481 15.199-13.7539 15.4771-14.9247.0348-.1464.0671-.6922-.2613-.9804s-.8132-.1897-1.163-.1113c-.4958.1111-8.3933 5.2646-23.6926 15.4605-2.2417 1.5197-4.2721 2.2602-6.0913 2.2214-2.0056-.0428-5.8634-1.1195-8.7313-2.0399-3.5176-1.1289-6.3134-1.7257-6.0699-3.6429.1268-.9986 1.5197-2.0198 4.1786-3.0638z"/></g></svg>