<svg fill="none" height="116" viewBox="0 0 116 116" width="116" xmlns="http://www.w3.org/2000/svg"><g fill="#fff"><circle cx="58" cy="58" fill-opacity=".2" r="58"/><path d="m32 34.0851c0 .0851.8516 1.2936 3.0056 4.3404.7013.9873 1.8701 2.6213 2.5881 3.6596 2.1206 3.0128 7.8144 11.0979 10.653 15.1149 1.436 2.0426 2.6549 3.7787 2.705 3.8638.0835.1532-3.4898 4.1022-10.6697 11.7958-1.3024 1.3957-2.4379 2.6213-2.5213 2.7404-.1002.1191-1.3692 1.4979-2.8386 3.0638-1.4694 1.566-2.6883 2.9617-2.7217 3.0979-.0501.2043.4508.2383 3.0556.2383h3.1225l1.9536-2.0766c1.0853-1.1574 2.2875-2.4851 2.6883-2.9447.384-.4766.9518-1.0893 1.2523-1.3617.2839-.2893 1.7199-1.8213 3.1725-3.4042 5.3266-5.8213 6.4453-6.9447 6.6624-6.6894.1169.1192 1.4527 1.9745 2.9554 4.1362 1.5195 2.1447 3.1225 4.4425 3.59 5.0893.4508.6298 1.2356 1.7532 1.7366 2.4681.5009.7149 1.486 2.0936 2.1706 3.0468l1.2357 1.7362h9.1669c7.2802 0 9.1336-.0511 9.0334-.2213-.1336-.2042-4.0909-5.8723-14.3265-20.4425-2.8219-4.0171-5.1095-7.4043-5.0761-7.5064.0334-.1192 1.1355-1.3958 2.4546-2.8255 6.5287-7.0809 13.3914-14.4851 14.3933-15.5575.6178-.6468 1.0853-1.2425 1.0519-1.3106-.0501-.0681-1.5028-.1362-3.2226-.1362h-3.1391l-3.0724 3.2851c-1.6865 1.8043-4.0074 4.3064-5.1428 5.566-3.9741 4.3744-6.2616 6.8085-6.3785 6.7744-.1336-.051-1.9369-2.5532-6.2282-8.6638-1.7366-2.4681-3.5566-5.0553-4.0575-5.7362l-.9184-1.2255h-9.1669c-5.0427 0-9.167.034-9.167.0851zm16.6642 5.7362c.3506.4936 1.3525 1.8893 2.204 3.1149.8683 1.2085 2.1206 2.9787 2.7885 3.9149.6679.9361 1.8034 2.5361 2.5214 3.5744.718 1.0213 2.1206 3.0128 3.1224 4.4256 1.0019 1.3957 2.538 3.5915 3.423 4.851.885 1.2596 2.6215 3.7107 3.8405 5.4468 1.9369 2.7405 2.8886 4.0851 5.6771 8 1.9202 2.7064 2.5047 3.5575 2.5047 3.7277 0 .1362-1.0019.1872-3.2394.1872h-3.256l-.885-1.1574c-.4842-.6468-1.1187-1.5149-1.4026-1.9234-.2838-.4085-1.1521-1.6341-1.9202-2.7064-1.5362-2.1447-4.4582-6.2638-5.2263-7.3872-.2672-.3745-.9852-1.3958-1.603-2.2298-.6178-.8511-1.7866-2.4851-2.6048-3.6596-.8349-1.1745-3.3729-4.766-5.6605-8-7.0964-10.0255-7.5974-10.7404-7.5974-10.9106 0-.0851 1.3859-.1532 3.3395-.1532h3.3229z"/></g></svg>