<svg fill="none" height="32" viewBox="0 0 32 32" width="32" xmlns="http://www.w3.org/2000/svg"><path d="m2.09253 15.6946c6.75049-2.9405 11.25077-4.8791 13.50087-5.81575 6.4322-2.67452 7.767-3.13902 8.6389-3.15458.1917-.00325.6186.04414.8972.26952.2315.18992.2967.44677.3292.62693.029.18016.0688.59076.0362.91128-.3473 3.661-1.8558 12.5452-2.6227 16.6458-.322 1.7351-.9624 2.3168-1.581 2.3736-1.3457.1237-2.366-.8885-3.6683-1.7419-2.0367-1.336-3.1871-2.1674-5.1659-3.4708-2.2863-1.5064-.8032-2.3345.4992-3.6875.34-.3541 6.2657-5.7426 6.3778-6.2313.0145-.0612.029-.2891-.1084-.4092-.1339-.1204-.333-.0792-.4777-.0466-.2062.0463-3.4584 2.198-9.76757 6.4549-.92249.6345-1.75814.9438-2.51061.9276-.82482-.0178-2.41647-.4674-3.59943-.8516-1.44705-.4714-2.601131-.7207-2.499838-1.5213.050647-.4167.625941-.8432 1.722078-1.2791z" fill="#fff"/></svg>