<svg id="eykh0a26TmR1" xmlns="http://www.w3.org/2000/svg" xmlns:xlink="http://www.w3.org/1999/xlink" viewBox="0 0 528 528" shape-rendering="geometricPrecision" text-rendering="geometricPrecision">
<style><![CDATA[
#eykh0a26TmR3_tr {animation: eykh0a26TmR3_tr__tr 1500ms linear infinite normal forwards}@keyframes eykh0a26TmR3_tr__tr { 0% {transform: translate(367.566702px,103.091669px) rotate(0deg)} 100% {transform: translate(367.566702px,103.091669px) rotate(360deg)}}
]]></style>
<path d="M117.574,291.235c-19.1309,0-33.569-4.558-43.3147-13.674-9.5653-9.295-14.3479-24.845-14.3479-46.652v-48.53h-11.9114v-43.971c6.8581,0,12.0017-1.698,15.4307-5.094c3.4291-3.575,5.1436-8.401,5.1436-14.478v-12.066h57.3917v31.638h36.546v43.971h-36.546v43.972c0,5.898,1.263,10.277,3.79,13.137c2.707,2.682,6.677,4.022,11.911,4.022c6.858,0,14.348-.804,22.469-2.413v42.094c-5.053,1.967-11.911,3.754-20.574,5.363-8.482,1.787-17.145,2.681-25.988,2.681ZM240.987,189.501v3.853h8.067l5.452,22.688-15.7,50.086-20.06-72.774h13.083v-3.853h-66.069v3.853h9.812l32.271,98.031h29.219l20.496-65.711l18.97,65.711h29.873l26.166-98.031h9.158v-3.853h-29.437v3.853h15.045l-19.406,72.132-19.624-72.132h8.94v-3.853h-56.256ZM443.242,411.72c-1.058-.262-2.247-.393-3.569-.393h-28.949v-85.226c1.851-25.136,8.989-42.024,21.414-50.665c2.908-1.833,5.42-2.749,7.535-2.749c3.437,0,6.873,3.011,10.31,9.033c4.495,8.379,9.253,13.354,14.276,14.925c2.379.785,4.891,1.178,7.535,1.178c9.517,0,16.258-4.582,20.224-13.746c1.322-2.881,1.983-5.892,1.983-9.034c0-12.568-6.213-20.423-18.638-23.565-3.173-.785-6.345-1.178-9.518-1.178-16.126,0-30.534,6.546-43.224,19.638-5.552,6.022-9.914,12.829-13.086,20.423l-2.38-36.919h-65.431v9.819h24.983v126.858c0,11.259-3.966,17.936-11.897,20.03-3.437.786-7.799,1.178-13.086,1.178v10.212h107.466c0-6.022-1.983-9.295-5.948-9.819Zm-304.548,9.156l24.532-31.784l22.28,31.784h56.055v-34.663h-15.525l-22.754-32.129l19.199-20.959h15.525v-35.583h-32.591L183.61,326.331l-19.199-28.789h-58.781v35.583h15.288l21.687,28.79-21.332,24.298h-17.776v34.663h35.197Zm207.687-35.681l3.409.899l2.5,4.27c-5,3.596-10.378,7.117-16.136,10.563-5.606,3.297-11.439,5.994-17.499,8.091-6.06,2.248-12.196,3.372-18.408,3.372-6.515,0-12.954-.899-19.317-2.697-6.212-1.649-11.591-4.57-16.136-8.766-5.454-4.944-9.166-10.788-11.136-17.53-1.818-6.743-2.727-13.56-2.727-20.453c0-8.241,1.288-16.257,3.863-24.048c2.576-7.791,6.515-14.759,11.818-20.902c5.303-6.293,11.893-11.238,19.772-14.834c8.03-3.745,17.423-5.618,28.18-5.618c7.121,0,14.015,1.048,20.681,3.146c6.667,1.948,12.121,5.319,16.363,10.114s6.363,11.312,6.363,19.553c0,2.398-.606,4.196-1.818,5.394-1.06,1.199-2.651,2.173-4.772,2.922l-5.227,1.573c-3.485,1.049-8.03,2.473-13.636,4.271-5.606,1.648-11.666,3.446-18.181,5.394s-12.954,3.895-19.317,5.843c-6.364,1.948-11.969,3.671-16.818,5.17c0,5.993,1.288,11.762,3.864,17.305c2.576,5.544,6.363,10.114,11.363,13.71c5,3.446,11.136,5.17,18.408,5.17c6.212,0,12.197-1.199,17.954-3.596c5.909-2.398,11.439-5.17,16.59-8.316Zm-66.588-34.162h.682c.303-.15.53-.225.682-.225c10.454-3.297,18.938-5.844,25.453-7.642c6.515-1.948,11.439-3.446,14.772-4.495c3.333-1.198,5.606-2.247,6.818-3.146c1.212-1.049,1.818-2.398,1.818-4.046c0-3.896-.682-7.716-2.045-11.462-1.364-3.896-3.561-7.117-6.591-9.665-3.03-2.547-7.045-3.82-12.045-3.82-6.06,0-11.136,1.498-15.226,4.495-4.091,2.847-7.273,6.518-9.545,11.013-2.273,4.495-3.939,9.289-5,14.384-.909,4.944-1.364,9.439-1.364,13.485c0,.749.531,1.124,1.591,1.124ZM406.695,246.611v-26.241h-11.372v-67.128l-53.599,5.493v21.446h11.372v40.189h-11.372v26.241h64.971Z" clip-rule="evenodd" fill="#fff" fill-rule="evenodd"/><g id="eykh0a26TmR3_tr" transform="translate(367.566702,103.091669) rotate(0)"><path d="M341.957,122.905c1.809,4.019,4.425,7.706,7.68,10.788c3.277,3.089,7.056,5.508,11.101,7.425c8.121,3.82,17.481,5.191,26.521,3.886c1.05-.185,2.167-.354,3.293-.597c1.11-.295,2.266-.568,3.383-.93c1.103-.405,2.213-.789,3.247-1.253c1.019-.501,1.992-.995,2.882-1.504.859-.568,1.627-1.128,2.288-1.667.669-.523,1.149-1.143,1.529-1.659.737-1.069.897-1.983.281-2.691-1.049-1.187-3.551-.177-6.721,1.106-.814.287-1.658.605-2.517.959-.867.339-1.787.604-2.676.936-1.818.575-3.658,1.091-5.346,1.386-7.619,1.438-15.656.671-22.818-2.234l-1.331-.568c-.448-.184-.889-.368-1.315-.612-.844-.457-1.726-.87-2.555-1.364l-2.449-1.534-2.25-1.71c-2.89-2.411-5.3-5.339-7.079-8.62-3.574-6.54-4.471-14.445-2.388-21.597c1.019-3.5689,2.783-6.9757,5.079-9.9103c2.304-2.8609,5.277-5.2427,8.714-6.6879l1.353-.5605c.457-.1697.936-.2949,1.399-.4423.92-.3317,1.901-.4645,2.852-.6858c1.931-.2801,3.9-.4572,5.854-.258.981.0295,1.939.2285,2.905.3833.487.0516.95.2285,1.422.3466.471.1402.95.2213,1.407.3982.904.3613,1.847.6342,2.699,1.1061l1.316.6415l1.239.7744c3.292,1.9835,5.688,4.9992,7.071,8.428.646,1.7327,1.012,3.5541,1.095,5.39c0,.4577.053.9217,0,1.3787l-.106,1.379-.244,1.357c-.068.457-.243.885-.349,1.334-.548,1.755-1.331,3.451-2.433,4.955-1.042,1.475-2.365,2.707-3.901,3.65-3.064,1.895-6.98,2.441-10.478,1.527-1.741-.443-3.429-1.283-4.805-2.331-1.361-1.032-2.35-2.44-2.988-3.981-.578-1.556-.822-3.274-.517-4.911.098-.826.402-1.615.714-2.382.213-.361.35-.76.609-1.099l.342-.531.372-.4569c.662-.7964,1.643-1.4601,2.722-1.8654c1.08-.4278,2.251-.5677,3.3-.5605c2.106-.0295,3.764.6193,4.768-.3908.517-.5309.441-1.2241-.236-1.9761-.662-.752-1.977-1.4452-3.619-1.7476-1.643-.3024-3.589-.1181-5.338.5089-1.756.6192-3.27,1.7181-4.364,2.8241-.875.8701-1.559,1.8508-2.107,2.8758-.593,1.0175-.958,2.1455-1.269,3.2735-.51,2.279-.479,4.697.228,6.939.319,1.135.844,2.197,1.445,3.215.646.988,1.368,1.946,2.258,2.743.852.84,1.855,1.504,2.851,2.101c1.012.583,2.084,1.077,3.202,1.46c4.455,1.541,9.542,1.247,13.77-.833c2.113-1.025,4.014-2.47,5.543-4.218c1.536-1.762,2.653-3.708,3.513-5.803.456-1.032.73-2.131,1.026-3.214l.297-1.66c.098-.553.106-1.113.159-1.673.122-2.2418-.083-4.4981-.669-6.666-.6-2.1679-1.543-4.2398-2.783-6.1348-1.216-1.9171-2.836-3.5615-4.6-4.9918-.456-.3391-.897-.7153-1.369-1.0175l-1.437-.8922-.722-.4423-.761-.3762-1.52-.7448c-.51-.2433-1.057-.4128-1.582-.6192-.54-.1844-1.049-.4277-1.604-.553-1.103-.2802-2.183-.6342-3.315-.7744-.563-.0886-1.118-.199-1.681-.2655l-1.703-.1253-.852-.059-.851.0146-1.704.037c-2.258.2139-4.524.5384-6.676,1.2609-2.182.6341-4.227,1.6296-6.181,2.7505l-1.414.9291c-.236.1548-.472.3096-.7.4719l-1.962,1.5928c-.418.3761-.798.7815-1.201,1.1723-1.62,1.5632-2.928,3.3843-4.106,5.2277-1.156,1.8655-2.16,3.827-2.928,5.8769-3.147,8.1843-2.851,17.5413.799,25.5793l-.008-.008Z" transform="translate(-373.19579,-105.350597)" fill="#fff"/></g></svg>
